<mxfile host="app.diagrams.net" agent="Mozilla/5.0 (Windows NT 10.0; Win64; x64; rv:137.0) Gecko/20100101 Firefox/137.0" version="26.2.14">
  <diagram name="Page-1" id="8DKELt-0UvDhkM0UKz2c">
    <mxGraphModel dx="1210" dy="1137" grid="1" gridSize="10" guides="1" tooltips="1" connect="1" arrows="1" fold="1" page="1" pageScale="1" pageWidth="850" pageHeight="1100" math="0" shadow="0">
      <root>
        <mxCell id="0" />
        <mxCell id="1" parent="0" />
        <mxCell id="Wtw4ruC7SrWoaz8WaDks-1" value="BACKEND" style="swimlane;whiteSpace=wrap;html=1;" vertex="1" parent="1">
          <mxGeometry x="10" y="20" width="270" height="920" as="geometry" />
        </mxCell>
        <mxCell id="Wtw4ruC7SrWoaz8WaDks-15" value="Log Urge .CSV" style="swimlane;fontStyle=0;childLayout=stackLayout;horizontal=1;startSize=30;horizontalStack=0;resizeParent=1;resizeParentMax=0;resizeLast=0;collapsible=1;marginBottom=0;whiteSpace=wrap;html=1;" vertex="1" parent="Wtw4ruC7SrWoaz8WaDks-1">
          <mxGeometry x="120" y="35" width="140" height="120" as="geometry" />
        </mxCell>
        <mxCell id="Wtw4ruC7SrWoaz8WaDks-16" value="Time of Day" style="text;strokeColor=none;fillColor=none;align=center;verticalAlign=middle;spacingLeft=4;spacingRight=4;overflow=hidden;points=[[0,0.5],[1,0.5]];portConstraint=eastwest;rotatable=0;whiteSpace=wrap;html=1;" vertex="1" parent="Wtw4ruC7SrWoaz8WaDks-15">
          <mxGeometry y="30" width="140" height="30" as="geometry" />
        </mxCell>
        <mxCell id="Wtw4ruC7SrWoaz8WaDks-17" value="Did they act" style="text;strokeColor=none;fillColor=none;align=center;verticalAlign=middle;spacingLeft=4;spacingRight=4;overflow=hidden;points=[[0,0.5],[1,0.5]];portConstraint=eastwest;rotatable=0;whiteSpace=wrap;html=1;" vertex="1" parent="Wtw4ruC7SrWoaz8WaDks-15">
          <mxGeometry y="60" width="140" height="30" as="geometry" />
        </mxCell>
        <mxCell id="Wtw4ruC7SrWoaz8WaDks-18" value="Emotion/Trigger" style="text;strokeColor=none;fillColor=none;align=center;verticalAlign=middle;spacingLeft=4;spacingRight=4;overflow=hidden;points=[[0,0.5],[1,0.5]];portConstraint=eastwest;rotatable=0;whiteSpace=wrap;html=1;" vertex="1" parent="Wtw4ruC7SrWoaz8WaDks-15">
          <mxGeometry y="90" width="140" height="30" as="geometry" />
        </mxCell>
        <mxCell id="Wtw4ruC7SrWoaz8WaDks-25" value="Storage of User&#39;s Triggers" style="swimlane;whiteSpace=wrap;html=1;" vertex="1" parent="Wtw4ruC7SrWoaz8WaDks-1">
          <mxGeometry x="35" y="180" width="200" height="200" as="geometry" />
        </mxCell>
        <mxCell id="Wtw4ruC7SrWoaz8WaDks-27" value="&lt;h1 style=&quot;margin-top: 0px;&quot;&gt;Triggers&lt;/h1&gt;&lt;p&gt;Stored in app only for user to see&lt;/p&gt;&lt;p&gt;&lt;br&gt;&lt;/p&gt;" style="text;html=1;whiteSpace=wrap;overflow=hidden;rounded=0;" vertex="1" parent="Wtw4ruC7SrWoaz8WaDks-25">
          <mxGeometry x="10" y="40" width="180" height="120" as="geometry" />
        </mxCell>
        <mxCell id="Wtw4ruC7SrWoaz8WaDks-46" value="&lt;div&gt;Stats Page&lt;/div&gt;" style="swimlane;whiteSpace=wrap;html=1;" vertex="1" parent="Wtw4ruC7SrWoaz8WaDks-1">
          <mxGeometry x="50" y="420" width="215" height="200" as="geometry" />
        </mxCell>
        <mxCell id="Wtw4ruC7SrWoaz8WaDks-47" value="&lt;div&gt;STORES:&amp;nbsp;&lt;/div&gt;&lt;div&gt;Streak&lt;/div&gt;&lt;div&gt;Craving count&lt;/div&gt;&lt;div&gt;Resist Counter&lt;/div&gt;&lt;div&gt;Trigger Data:&lt;/div&gt;&lt;div&gt;How many times of certain trigger&lt;/div&gt;&lt;div&gt;Most common trigger&lt;/div&gt;" style="text;html=1;align=center;verticalAlign=middle;resizable=0;points=[];autosize=1;strokeColor=none;fillColor=none;" vertex="1" parent="Wtw4ruC7SrWoaz8WaDks-46">
          <mxGeometry x="7.5" y="50" width="200" height="110" as="geometry" />
        </mxCell>
        <mxCell id="Wtw4ruC7SrWoaz8WaDks-2" value="FRONTEND" style="swimlane;whiteSpace=wrap;html=1;" vertex="1" parent="1">
          <mxGeometry x="320" y="20" width="280" height="1000" as="geometry" />
        </mxCell>
        <mxCell id="Wtw4ruC7SrWoaz8WaDks-10" value="Log Urge" style="swimlane;fontStyle=0;childLayout=stackLayout;horizontal=1;startSize=30;horizontalStack=0;resizeParent=1;resizeParentMax=0;resizeLast=0;collapsible=1;marginBottom=0;whiteSpace=wrap;html=1;" vertex="1" parent="Wtw4ruC7SrWoaz8WaDks-2">
          <mxGeometry x="90" y="50" width="140" height="200" as="geometry">
            <mxRectangle x="90" y="50" width="90" height="30" as="alternateBounds" />
          </mxGeometry>
        </mxCell>
        <mxCell id="Wtw4ruC7SrWoaz8WaDks-20" value="&lt;div&gt;Habit&lt;/div&gt;" style="text;strokeColor=none;align=center;fillColor=none;html=1;verticalAlign=middle;whiteSpace=wrap;rounded=0;" vertex="1" parent="Wtw4ruC7SrWoaz8WaDks-10">
          <mxGeometry y="30" width="140" height="30" as="geometry" />
        </mxCell>
        <mxCell id="Wtw4ruC7SrWoaz8WaDks-11" value="&lt;div align=&quot;center&quot;&gt;Trigger List&lt;/div&gt;" style="text;strokeColor=none;fillColor=none;align=center;verticalAlign=middle;spacingLeft=4;spacingRight=4;overflow=hidden;points=[[0,0.5],[1,0.5]];portConstraint=eastwest;rotatable=0;whiteSpace=wrap;html=1;" vertex="1" parent="Wtw4ruC7SrWoaz8WaDks-10">
          <mxGeometry y="60" width="140" height="30" as="geometry" />
        </mxCell>
        <mxCell id="Wtw4ruC7SrWoaz8WaDks-12" value="&lt;div align=&quot;center&quot;&gt;Urge Strength&lt;/div&gt;" style="text;strokeColor=none;fillColor=none;align=center;verticalAlign=middle;spacingLeft=4;spacingRight=4;overflow=hidden;points=[[0,0.5],[1,0.5]];portConstraint=eastwest;rotatable=0;whiteSpace=wrap;html=1;" vertex="1" parent="Wtw4ruC7SrWoaz8WaDks-10">
          <mxGeometry y="90" width="140" height="30" as="geometry" />
        </mxCell>
        <mxCell id="Wtw4ruC7SrWoaz8WaDks-13" value="&lt;div align=&quot;center&quot;&gt;[Optional] Outcome&lt;/div&gt;" style="text;strokeColor=none;fillColor=none;align=center;verticalAlign=middle;spacingLeft=4;spacingRight=4;overflow=hidden;points=[[0,0.5],[1,0.5]];portConstraint=eastwest;rotatable=0;whiteSpace=wrap;html=1;" vertex="1" parent="Wtw4ruC7SrWoaz8WaDks-10">
          <mxGeometry y="120" width="140" height="40" as="geometry" />
        </mxCell>
        <mxCell id="Wtw4ruC7SrWoaz8WaDks-14" value="Emotion" style="text;strokeColor=none;align=center;fillColor=none;html=1;verticalAlign=middle;whiteSpace=wrap;rounded=0;" vertex="1" parent="Wtw4ruC7SrWoaz8WaDks-10">
          <mxGeometry y="160" width="140" height="40" as="geometry" />
        </mxCell>
        <mxCell id="Wtw4ruC7SrWoaz8WaDks-41" value="&lt;div&gt;Achievements Unlocked: UI hidden&lt;/div&gt;" style="swimlane;whiteSpace=wrap;html=1;startSize=60;" vertex="1" parent="Wtw4ruC7SrWoaz8WaDks-2">
          <mxGeometry x="40" y="390" width="200" height="590" as="geometry" />
        </mxCell>
        <mxCell id="Wtw4ruC7SrWoaz8WaDks-43" value="&lt;h1 style=&quot;margin-top: 0px;&quot;&gt;Rewards:&lt;/h1&gt;&lt;p&gt;If streak &amp;lt; 1month and no reset :&lt;/p&gt;&lt;p&gt;&lt;span style=&quot;white-space: pre;&quot;&gt;&#x9;&lt;/span&gt;Congrats animation @ 2week streak&lt;/p&gt;&lt;p&gt;else if: &amp;gt;= 1 month and no reset:&lt;/p&gt;&lt;p&gt;&lt;span style=&quot;white-space: pre;&quot;&gt;&#x9;&lt;/span&gt;every 4 weeks congrats and &lt;br&gt;&lt;/p&gt;&lt;p&gt;&amp;nbsp;&amp;nbsp;&amp;nbsp;&amp;nbsp;&amp;nbsp;&amp;nbsp;&amp;nbsp; give streak badge&lt;/p&gt;&lt;p&gt;else if: == 1 year and no reset:&lt;/p&gt;&lt;p&gt;&amp;nbsp;&amp;nbsp;&amp;nbsp;&amp;nbsp;&amp;nbsp;&amp;nbsp;&amp;nbsp;&amp;nbsp; 1 year pin &amp;amp; BIG animation&lt;/p&gt;&lt;p&gt;&lt;span style=&quot;white-space: pre;&quot;&gt;&#x9;&lt;/span&gt;reset += 1&lt;/p&gt;&lt;p&gt;else if : &amp;lt; 1year and reset &amp;gt; 0:&lt;/p&gt;&lt;p&gt;&lt;span style=&quot;white-space: pre;&quot;&gt;&#x9;every 4 weeks: animation.&lt;/span&gt;&lt;/p&gt;&lt;div&gt;&lt;br&gt;&lt;/div&gt;&lt;div&gt;else: streak restarted:&lt;br&gt;&lt;span style=&quot;white-space: pre;&quot;&gt;&#x9;&lt;/span&gt;streak and reset == 0.&lt;/div&gt;&lt;br&gt;&lt;div align=&quot;center&quot;&gt;Total Cravings counter:&lt;br&gt;&lt;/div&gt;&lt;div align=&quot;center&quot;&gt;Prompt a gentle reflection&lt;/div&gt;&lt;div align=&quot;center&quot;&gt;“Every craving you resisted before this still matters. Let’s start a new streak.”&lt;/div&gt;&lt;div align=&quot;center&quot;&gt;Use that data in the stats screen to help users identify common triggers over time.&lt;/div&gt;" style="text;html=1;whiteSpace=wrap;overflow=hidden;rounded=0;" vertex="1" parent="Wtw4ruC7SrWoaz8WaDks-41">
          <mxGeometry x="10" y="70" width="180" height="510" as="geometry" />
        </mxCell>
        <mxCell id="Wtw4ruC7SrWoaz8WaDks-3" value="UI" style="swimlane;whiteSpace=wrap;html=1;" vertex="1" parent="1">
          <mxGeometry x="640" y="20" width="280" height="1000" as="geometry" />
        </mxCell>
        <mxCell id="Wtw4ruC7SrWoaz8WaDks-4" value="Home Page" style="swimlane;fontStyle=0;childLayout=stackLayout;horizontal=1;startSize=30;horizontalStack=0;resizeParent=1;resizeParentMax=0;resizeLast=0;collapsible=1;marginBottom=0;whiteSpace=wrap;html=1;" vertex="1" parent="Wtw4ruC7SrWoaz8WaDks-3">
          <mxGeometry x="70" y="60" width="140" height="150" as="geometry" />
        </mxCell>
        <mxCell id="Wtw4ruC7SrWoaz8WaDks-5" value="&lt;div&gt;Log Urge&lt;/div&gt;" style="text;strokeColor=none;fillColor=none;align=center;verticalAlign=middle;spacingLeft=4;spacingRight=4;overflow=hidden;points=[[0,0.5],[1,0.5]];portConstraint=eastwest;rotatable=0;whiteSpace=wrap;html=1;" vertex="1" parent="Wtw4ruC7SrWoaz8WaDks-4">
          <mxGeometry y="30" width="140" height="30" as="geometry" />
        </mxCell>
        <mxCell id="Wtw4ruC7SrWoaz8WaDks-6" value="Add Triggers" style="text;strokeColor=none;fillColor=none;align=center;verticalAlign=middle;spacingLeft=4;spacingRight=4;overflow=hidden;points=[[0,0.5],[1,0.5]];portConstraint=eastwest;rotatable=0;whiteSpace=wrap;html=1;" vertex="1" parent="Wtw4ruC7SrWoaz8WaDks-4">
          <mxGeometry y="60" width="140" height="30" as="geometry" />
        </mxCell>
        <mxCell id="Wtw4ruC7SrWoaz8WaDks-45" value="Stats page" style="text;strokeColor=none;align=center;fillColor=none;html=1;verticalAlign=middle;whiteSpace=wrap;rounded=0;" vertex="1" parent="Wtw4ruC7SrWoaz8WaDks-4">
          <mxGeometry y="90" width="140" height="30" as="geometry" />
        </mxCell>
        <mxCell id="Wtw4ruC7SrWoaz8WaDks-8" value="&lt;div&gt;Visual Reminders&lt;/div&gt;" style="text;html=1;align=center;verticalAlign=middle;resizable=0;points=[];autosize=1;strokeColor=none;fillColor=none;" vertex="1" parent="Wtw4ruC7SrWoaz8WaDks-4">
          <mxGeometry y="120" width="140" height="30" as="geometry" />
        </mxCell>
        <mxCell id="Wtw4ruC7SrWoaz8WaDks-22" value="&lt;div&gt;If user marked outcome:&lt;/div&gt;" style="swimlane;whiteSpace=wrap;html=1;" vertex="1" parent="Wtw4ruC7SrWoaz8WaDks-3">
          <mxGeometry x="30" y="230" width="230" height="200" as="geometry" />
        </mxCell>
        <mxCell id="Wtw4ruC7SrWoaz8WaDks-23" value="&lt;div&gt;Resisted: Create a Happy&lt;/div&gt;&lt;div&gt;&amp;nbsp;Celebrating animation&lt;/div&gt;" style="text;html=1;align=center;verticalAlign=middle;resizable=0;points=[];autosize=1;strokeColor=none;fillColor=none;" vertex="1" parent="Wtw4ruC7SrWoaz8WaDks-22">
          <mxGeometry x="30" y="30" width="160" height="40" as="geometry" />
        </mxCell>
        <mxCell id="Wtw4ruC7SrWoaz8WaDks-24" value="&lt;div&gt;Acted on Urge:&amp;nbsp;&lt;/div&gt;&lt;div&gt;Nothing to see here&lt;/div&gt;" style="text;html=1;align=center;verticalAlign=middle;resizable=0;points=[];autosize=1;strokeColor=none;fillColor=none;" vertex="1" parent="Wtw4ruC7SrWoaz8WaDks-22">
          <mxGeometry x="45" y="90" width="130" height="40" as="geometry" />
        </mxCell>
        <mxCell id="Wtw4ruC7SrWoaz8WaDks-31" value="Add Triggers" style="swimlane;whiteSpace=wrap;html=1;" vertex="1" parent="Wtw4ruC7SrWoaz8WaDks-3">
          <mxGeometry x="40" y="480" width="200" height="200" as="geometry" />
        </mxCell>
        <mxCell id="Wtw4ruC7SrWoaz8WaDks-33" value="List of common triggers as Buttons" style="text;html=1;align=left;verticalAlign=middle;whiteSpace=wrap;rounded=0;" vertex="1" parent="Wtw4ruC7SrWoaz8WaDks-31">
          <mxGeometry x="10" y="40" width="140" height="60" as="geometry" />
        </mxCell>
        <mxCell id="Wtw4ruC7SrWoaz8WaDks-34" value="&lt;div align=&quot;right&quot;&gt;User Input for less common Triggers&lt;/div&gt;" style="text;html=1;align=right;verticalAlign=middle;whiteSpace=wrap;rounded=0;" vertex="1" parent="Wtw4ruC7SrWoaz8WaDks-31">
          <mxGeometry x="40" y="110" width="140" height="60" as="geometry" />
        </mxCell>
        <mxCell id="Wtw4ruC7SrWoaz8WaDks-32" value="" style="curved=1;endArrow=classic;html=1;rounded=0;entryX=1;entryY=0;entryDx=0;entryDy=0;exitX=1;exitY=0.5;exitDx=0;exitDy=0;" edge="1" parent="Wtw4ruC7SrWoaz8WaDks-3" source="Wtw4ruC7SrWoaz8WaDks-6" target="Wtw4ruC7SrWoaz8WaDks-31">
          <mxGeometry width="50" height="50" relative="1" as="geometry">
            <mxPoint x="-240" y="560" as="sourcePoint" />
            <mxPoint x="-190" y="510" as="targetPoint" />
            <Array as="points">
              <mxPoint x="330" y="140" />
              <mxPoint x="350" y="420" />
            </Array>
          </mxGeometry>
        </mxCell>
        <mxCell id="Wtw4ruC7SrWoaz8WaDks-35" value="HomeScreen Widgit" style="swimlane;whiteSpace=wrap;html=1;" vertex="1" parent="Wtw4ruC7SrWoaz8WaDks-3">
          <mxGeometry x="60" y="750" width="200" height="200" as="geometry" />
        </mxCell>
        <mxCell id="Wtw4ruC7SrWoaz8WaDks-36" value="UI Widgit" style="swimlane;fontStyle=0;childLayout=stackLayout;horizontal=1;startSize=30;horizontalStack=0;resizeParent=1;resizeParentMax=0;resizeLast=0;collapsible=1;marginBottom=0;whiteSpace=wrap;html=1;" vertex="1" parent="Wtw4ruC7SrWoaz8WaDks-35">
          <mxGeometry x="30" y="50" width="140" height="90" as="geometry" />
        </mxCell>
        <mxCell id="Wtw4ruC7SrWoaz8WaDks-37" value="Log Button: opens app to Log Urge Screen" style="text;strokeColor=none;fillColor=none;align=left;verticalAlign=middle;spacingLeft=4;spacingRight=4;overflow=hidden;points=[[0,0.5],[1,0.5]];portConstraint=eastwest;rotatable=0;whiteSpace=wrap;html=1;" vertex="1" parent="Wtw4ruC7SrWoaz8WaDks-36">
          <mxGeometry y="30" width="140" height="30" as="geometry" />
        </mxCell>
        <mxCell id="Wtw4ruC7SrWoaz8WaDks-38" value="Progress Bar" style="text;strokeColor=none;fillColor=none;align=left;verticalAlign=middle;spacingLeft=4;spacingRight=4;overflow=hidden;points=[[0,0.5],[1,0.5]];portConstraint=eastwest;rotatable=0;whiteSpace=wrap;html=1;" vertex="1" parent="Wtw4ruC7SrWoaz8WaDks-36">
          <mxGeometry y="60" width="140" height="30" as="geometry" />
        </mxCell>
        <mxCell id="Wtw4ruC7SrWoaz8WaDks-9" value="" style="curved=1;endArrow=classic;html=1;rounded=0;entryX=1.014;entryY=0.1;entryDx=0;entryDy=0;entryPerimeter=0;" edge="1" parent="1" source="Wtw4ruC7SrWoaz8WaDks-5" target="Wtw4ruC7SrWoaz8WaDks-10">
          <mxGeometry width="50" height="50" relative="1" as="geometry">
            <mxPoint x="400" y="580" as="sourcePoint" />
            <mxPoint x="580" y="150" as="targetPoint" />
            <Array as="points">
              <mxPoint x="660" y="130" />
              <mxPoint x="590" y="120" />
            </Array>
          </mxGeometry>
        </mxCell>
        <mxCell id="Wtw4ruC7SrWoaz8WaDks-19" value="" style="curved=1;endArrow=classic;html=1;rounded=0;entryX=0.929;entryY=0.067;entryDx=0;entryDy=0;entryPerimeter=0;exitX=0;exitY=0;exitDx=0;exitDy=0;" edge="1" parent="1" source="Wtw4ruC7SrWoaz8WaDks-10" target="Wtw4ruC7SrWoaz8WaDks-15">
          <mxGeometry width="50" height="50" relative="1" as="geometry">
            <mxPoint x="400" y="580" as="sourcePoint" />
            <mxPoint x="450" y="530" as="targetPoint" />
            <Array as="points">
              <mxPoint x="290" y="100" />
            </Array>
          </mxGeometry>
        </mxCell>
        <mxCell id="Wtw4ruC7SrWoaz8WaDks-21" value="" style="curved=1;endArrow=classic;html=1;rounded=0;exitX=1;exitY=0.5;exitDx=0;exitDy=0;" edge="1" parent="1" source="Wtw4ruC7SrWoaz8WaDks-13" target="Wtw4ruC7SrWoaz8WaDks-22">
          <mxGeometry width="50" height="50" relative="1" as="geometry">
            <mxPoint x="400" y="580" as="sourcePoint" />
            <mxPoint x="710" y="290" as="targetPoint" />
            <Array as="points">
              <mxPoint x="580" y="220" />
              <mxPoint x="610" y="270" />
            </Array>
          </mxGeometry>
        </mxCell>
        <mxCell id="Wtw4ruC7SrWoaz8WaDks-28" value="" style="curved=1;endArrow=classic;html=1;rounded=0;" edge="1" parent="1" source="Wtw4ruC7SrWoaz8WaDks-6" target="Wtw4ruC7SrWoaz8WaDks-11">
          <mxGeometry width="50" height="50" relative="1" as="geometry">
            <mxPoint x="400" y="580" as="sourcePoint" />
            <mxPoint x="450" y="530" as="targetPoint" />
            <Array as="points">
              <mxPoint x="680" y="170" />
            </Array>
          </mxGeometry>
        </mxCell>
        <mxCell id="Wtw4ruC7SrWoaz8WaDks-30" value="" style="endArrow=classic;startArrow=classic;html=1;rounded=0;entryX=0;entryY=0.5;entryDx=0;entryDy=0;exitX=1;exitY=0;exitDx=0;exitDy=0;" edge="1" parent="1" source="Wtw4ruC7SrWoaz8WaDks-25" target="Wtw4ruC7SrWoaz8WaDks-11">
          <mxGeometry width="50" height="50" relative="1" as="geometry">
            <mxPoint x="400" y="580" as="sourcePoint" />
            <mxPoint x="450" y="530" as="targetPoint" />
          </mxGeometry>
        </mxCell>
        <mxCell id="Wtw4ruC7SrWoaz8WaDks-40" value="" style="endArrow=classic;html=1;rounded=0;exitX=0;exitY=0;exitDx=0;exitDy=0;entryX=1;entryY=1;entryDx=0;entryDy=0;" edge="1" parent="1" source="Wtw4ruC7SrWoaz8WaDks-35" target="Wtw4ruC7SrWoaz8WaDks-14">
          <mxGeometry width="50" height="50" relative="1" as="geometry">
            <mxPoint x="400" y="580" as="sourcePoint" />
            <mxPoint x="450" y="530" as="targetPoint" />
          </mxGeometry>
        </mxCell>
        <mxCell id="Wtw4ruC7SrWoaz8WaDks-44" value="Text" style="text;strokeColor=none;align=center;fillColor=none;html=1;verticalAlign=middle;whiteSpace=wrap;rounded=0;" vertex="1" parent="1">
          <mxGeometry x="390" y="540" width="60" height="30" as="geometry" />
        </mxCell>
        <mxCell id="Wtw4ruC7SrWoaz8WaDks-48" value="" style="endArrow=classic;html=1;rounded=0;entryX=1;entryY=0;entryDx=0;entryDy=0;exitX=-0.043;exitY=0.567;exitDx=0;exitDy=0;exitPerimeter=0;" edge="1" parent="1" source="Wtw4ruC7SrWoaz8WaDks-45" target="Wtw4ruC7SrWoaz8WaDks-46">
          <mxGeometry width="50" height="50" relative="1" as="geometry">
            <mxPoint x="400" y="580" as="sourcePoint" />
            <mxPoint x="450" y="530" as="targetPoint" />
          </mxGeometry>
        </mxCell>
      </root>
    </mxGraphModel>
  </diagram>
</mxfile>
